<svg width="136" height="32" viewBox="0 0 136 32" fill="none" xmlns="http://www.w3.org/2000/svg">
<path d="M29.5469 25H26.7344V13.1055H26.5703L21.8945 24.3438H19.7383L15.0625 13.1055H14.8984V25H12.0859V8.08984H15.625L20.7109 20.4062H20.9219L26.0078 8.08984H29.5469V25ZM35.7822 25H32.7588V8.08984H35.7822V25ZM41.912 25H38.9941V8.08984H41.6191L49.9159 19.5859H50.1152V8.08984H53.0214V25H50.4081L42.1112 13.4922H41.912V25ZM56.245 8.08984H62.5848C65.1005 8.08984 67.0536 8.82422 68.4442 10.293C69.8427 11.7539 70.5419 13.8125 70.5419 16.4688C70.5419 19.1797 69.8466 21.2812 68.4559 22.7734C67.0731 24.2578 65.1161 25 62.5848 25H56.245V8.08984ZM59.2684 10.7031V22.3867H62.1864C63.8739 22.3867 65.1747 21.8789 66.0887 20.8633C67.0028 19.8477 67.4598 18.3984 67.4598 16.5156C67.4598 14.6719 66.995 13.2422 66.0653 12.2266C65.1434 11.2109 63.8505 10.7031 62.1864 10.7031H59.2684Z" fill="#234EE3"/>
<path d="M79.1094 25H76.0859V8.08984H86.8672V10.7031H79.1094V15.625H86.1992V18.1445H79.1094V25ZM89.0712 25V7.22266H91.9775V25H89.0712ZM100.228 25.2578C98.3066 25.2578 96.7987 24.668 95.705 23.4883C94.6112 22.3008 94.0644 20.668 94.0644 18.5898C94.0644 16.5273 94.6152 14.9023 95.7167 13.7148C96.8183 12.5195 98.3222 11.9219 100.228 11.9219C102.142 11.9219 103.646 12.5156 104.74 13.7031C105.842 14.8906 106.392 16.5195 106.392 18.5898C106.392 20.668 105.842 22.3008 104.74 23.4883C103.646 24.668 102.142 25.2578 100.228 25.2578ZM97.873 21.7188C98.4277 22.4531 99.2128 22.8203 100.228 22.8203C101.244 22.8203 102.025 22.4531 102.572 21.7188C103.127 20.9766 103.404 19.9336 103.404 18.5898C103.404 17.2539 103.127 16.2148 102.572 15.4727C102.017 14.7305 101.236 14.3594 100.228 14.3594C99.2128 14.3594 98.4277 14.7305 97.873 15.4727C97.3183 16.2148 97.0409 17.2539 97.0409 18.5898C97.0409 19.9336 97.3183 20.9766 97.873 21.7188ZM125.015 12.1797L121.546 25H118.487L115.991 15.7656H115.792L113.307 25H110.284L106.815 12.1797H109.745L111.878 21.7539H112.077L114.538 12.1797H117.315L119.8 21.7539H119.999L122.12 12.1797H125.015Z" fill="white"/>
</svg>
