<svg width="116" height="32" viewBox="0 0 116 32" fill="none" xmlns="http://www.w3.org/2000/svg">
<path d="M19.5469 25H16.7344V13.1055H16.5703L11.8945 24.3438H9.73828L5.0625 13.1055H4.89844V25H2.08594V8.08984H5.625L10.7109 20.4062H10.9219L16.0078 8.08984H19.5469V25ZM25.7822 25H22.7588V8.08984H25.7822V25ZM31.912 25H28.9941V8.08984H31.6191L39.9159 19.5859H40.1152V8.08984H43.0214V25H40.4081L32.1112 13.4922H31.912V25ZM46.245 8.08984H52.5848C55.1005 8.08984 57.0536 8.82422 58.4442 10.293C59.8427 11.7539 60.5419 13.8125 60.5419 16.4688C60.5419 19.1797 59.8466 21.2812 58.4559 22.7734C57.0731 24.2578 55.1161 25 52.5848 25H46.245V8.08984ZM49.2684 10.7031V22.3867H52.1864C53.8739 22.3867 55.1747 21.8789 56.0887 20.8633C57.0028 19.8477 57.4598 18.3984 57.4598 16.5156C57.4598 14.6719 56.995 13.2422 56.0653 12.2266C55.1434 11.2109 53.8505 10.7031 52.1864 10.7031H49.2684Z" fill="#234EE3"/>
<path d="M69.1094 25H66.0859V8.08984H76.8672V10.7031H69.1094V15.625H76.1992V18.1445H69.1094V25ZM79.0712 25V7.22266H81.9775V25H79.0712ZM90.2284 25.2578C88.3066 25.2578 86.7987 24.668 85.705 23.4883C84.6112 22.3008 84.0644 20.668 84.0644 18.5898C84.0644 16.5273 84.6152 14.9023 85.7167 13.7148C86.8183 12.5195 88.3222 11.9219 90.2284 11.9219C92.1425 11.9219 93.6464 12.5156 94.7402 13.7031C95.8417 14.8906 96.3925 16.5195 96.3925 18.5898C96.3925 20.668 95.8417 22.3008 94.7402 23.4883C93.6464 24.668 92.1425 25.2578 90.2284 25.2578ZM87.873 21.7188C88.4277 22.4531 89.2128 22.8203 90.2284 22.8203C91.2441 22.8203 92.0253 22.4531 92.5722 21.7188C93.1269 20.9766 93.4042 19.9336 93.4042 18.5898C93.4042 17.2539 93.1269 16.2148 92.5722 15.4727C92.0175 14.7305 91.2362 14.3594 90.2284 14.3594C89.2128 14.3594 88.4277 14.7305 87.873 15.4727C87.3183 16.2148 87.0409 17.2539 87.0409 18.5898C87.0409 19.9336 87.3183 20.9766 87.873 21.7188ZM115.015 12.1797L111.546 25H108.487L105.991 15.7656H105.792L103.307 25H100.284L96.8153 12.1797H99.745L101.878 21.7539H102.077L104.538 12.1797H107.315L109.8 21.7539H109.999L112.12 12.1797H115.015Z" fill="#181818"/>
</svg>
