<svg width="116" height="32" viewBox="0 0 116 32" fill="none" xmlns="http://www.w3.org/2000/svg">
<path d="M19.4511 24H16.6523V12.1638H16.4891L11.8362 23.347H9.69054L5.03768 12.1638H4.87443V24H2.07571V7.17274H5.59743L10.6584 19.4288H10.8683L15.9293 7.17274H19.4511V24ZM25.6558 24H22.6472V7.17274H25.6558V24ZM31.7556 24H28.8519V7.17274H31.4641L39.7203 18.6125H39.9185V7.17274H42.8105V24H40.21L31.9538 12.5486H31.7556V24ZM46.0183 7.17274H52.3271C54.8304 7.17274 56.7739 7.90351 58.1577 9.36506C59.5493 10.8188 60.2451 12.8673 60.2451 15.5106C60.2451 18.2082 59.5532 20.2995 58.1694 21.7844C56.7933 23.2615 54.8459 24 52.3271 24H46.0183V7.17274ZM49.0269 9.77321V21.3995H51.9306C53.6098 21.3995 54.9042 20.8942 55.8138 19.8836C56.7234 18.8729 57.1782 17.4308 57.1782 15.5572C57.1782 13.7225 56.7156 12.2998 55.7905 11.2892C54.8731 10.2785 53.5865 9.77321 51.9306 9.77321H49.0269Z" fill="#234EE3"/>
<path d="M69.0746 24H66.0659V7.17274H76.7943V9.77321H69.0746V14.671H76.1297V17.1781H69.0746V24ZM78.9876 24V6.3098H81.8796V24H78.9876ZM90.0901 24.2565C88.1776 24.2565 86.6772 23.6696 85.5888 22.4957C84.5004 21.314 83.9563 19.6892 83.9563 17.6213C83.9563 15.5689 84.5043 13.9518 85.6005 12.7702C86.6967 11.5807 88.1932 10.986 90.0901 10.986C91.9948 10.986 93.4913 11.5768 94.5797 12.7585C95.6759 13.9402 96.2239 15.5611 96.2239 17.6213C96.2239 19.6892 95.6759 21.314 94.5797 22.4957C93.4913 23.6696 91.9948 24.2565 90.0901 24.2565ZM87.7462 20.7348C88.2981 21.4656 89.0795 21.831 90.0901 21.831C91.1007 21.831 91.8782 21.4656 92.4224 20.7348C92.9743 19.9963 93.2503 18.9584 93.2503 17.6213C93.2503 16.2919 92.9743 15.2579 92.4224 14.5194C91.8704 13.7808 91.093 13.4115 90.0901 13.4115C89.0795 13.4115 88.2981 13.7808 87.7462 14.5194C87.1942 15.2579 86.9182 16.2919 86.9182 17.6213C86.9182 18.9584 87.1942 19.9963 87.7462 20.7348ZM114.755 11.2425L111.303 24H108.259L105.775 14.8109H105.577L103.105 24H100.096L96.6447 11.2425H99.56L101.682 20.7698H101.881L104.329 11.2425H107.093L109.565 20.7698H109.764L111.874 11.2425H114.755Z" fill="#181818"/>
</svg>
