<svg width="18" height="12" viewBox="0 0 18 12" fill="none" xmlns="http://www.w3.org/2000/svg">
<path d="M1.22907 5.24993C0.81486 5.24993 0.479074 5.58572 0.479074 5.99993C0.479074 6.41414 0.81486 6.74993 1.22907 6.74993L1.22907 5.24993ZM13.7232 0.481355C13.429 0.189771 12.9541 0.19189 12.6625 0.486087C12.3709 0.780284 12.373 1.25515 12.6672 1.54674L13.7232 0.481355ZM14.9532 2.75642L14.4252 3.28911L14.9532 2.75642ZM14.9532 9.24344L15.4811 9.77613L14.9532 9.24344ZM12.6672 10.4531C12.373 10.7447 12.3709 11.2196 12.6625 11.5138C12.9541 11.808 13.429 11.8101 13.7232 11.5185L12.6672 10.4531ZM17.1641 5.68748L17.9081 5.59265L17.9081 5.59265L17.1641 5.68748ZM17.1641 6.31238L17.9081 6.40721L17.9081 6.40721L17.1641 6.31238ZM17.1526 5.99993L17.2462 5.25579L17.1996 5.24993L17.1526 5.24993L17.1526 5.99993ZM17.1839 6.00386L17.9339 6.00506L17.9339 6.00506L17.1839 6.00386ZM13.1952 1.01405L12.6672 1.54674L14.4252 3.28911L14.9532 2.75642L15.4811 2.22373L13.7232 0.481355L13.1952 1.01405ZM14.9532 9.24344L14.4252 8.71075L12.6672 10.4531L13.1952 10.9858L13.7232 11.5185L15.4811 9.77613L14.9532 9.24344ZM14.9532 2.75642L14.4252 3.28911C15.1387 3.99628 15.6281 4.48285 15.9591 4.89509C16.2807 5.29551 16.3908 5.55243 16.4201 5.78231L17.1641 5.68748L17.9081 5.59265C17.8294 4.97574 17.5351 4.46189 17.1287 3.95585C16.7318 3.46164 16.1696 2.90607 15.4811 2.22373L14.9532 2.75642ZM14.9532 9.24344L15.4811 9.77613C16.1696 9.09379 16.7318 8.53822 17.1287 8.04401C17.5351 7.53797 17.8294 7.02412 17.9081 6.40721L17.1641 6.31238L16.4201 6.21755C16.3908 6.44743 16.2807 6.70435 15.9591 7.10477C15.6281 7.51701 15.1387 8.00358 14.4252 8.71075L14.9532 9.24344ZM1.22907 5.99993L1.22907 6.74993L17.1526 6.74993L17.1526 5.99993L17.1526 5.24993L1.22907 5.24993L1.22907 5.99993ZM17.1641 5.68748L16.4201 5.78231C16.4294 5.85547 16.434 5.92907 16.4339 6.00267L17.1839 6.00386L17.9339 6.00506C17.9341 5.86732 17.9255 5.72957 17.9081 5.59265L17.1641 5.68748ZM17.1839 6.00386L16.4339 6.00267C16.4338 6.07443 16.4292 6.1462 16.4201 6.21755L17.1641 6.31238L17.9081 6.40721C17.9251 6.27369 17.9337 6.13938 17.9339 6.00506L17.1839 6.00386ZM17.1526 5.99993L17.059 6.74407L17.0903 6.748L17.1839 6.00386L17.2775 5.25972L17.2462 5.25579L17.1526 5.99993Z" fill="white"/>
</svg>
