<svg width="17" height="16" viewBox="0 0 17 16" fill="none" xmlns="http://www.w3.org/2000/svg">
<path d="M9.06815 0.268747L11.1994 5.29179L16.6048 5.77989C16.8434 5.80064 17.0199 6.01213 16.9991 6.25216C16.9892 6.36917 16.9342 6.47116 16.8528 6.54284L16.853 6.54297L12.7637 10.1375L13.9731 15.4651C14.0267 15.7004 13.8805 15.9347 13.6468 15.9886C13.527 16.0163 13.4076 15.991 13.3123 15.9284L8.66748 13.1331L4.00789 15.9374C3.80227 16.0611 3.53588 15.9936 3.41286 15.7866C3.35304 15.6862 3.33826 15.5709 3.36227 15.4651H3.36186L4.57145 10.1375L0.482062 6.54311C0.301803 6.38432 0.283628 6.10852 0.441236 5.92707C0.521396 5.83478 0.631803 5.78481 0.74438 5.77866L6.13559 5.29179L8.2679 0.266016C8.36176 0.0438772 8.61676 -0.0594781 8.83743 0.0350025C8.94594 0.0814236 9.02597 0.167166 9.06815 0.268747ZM10.5021 5.87396L8.66748 1.5497L6.83275 5.87396L6.83221 5.87383C6.77145 6.01732 6.63595 6.12313 6.47074 6.13761L1.81766 6.55785L5.31961 9.63599C5.44833 9.73702 5.51465 9.90741 5.47586 10.0784L4.435 14.6628L8.43704 12.2543C8.57078 12.17 8.74547 12.1625 8.89033 12.2498L12.9001 14.6628L11.8594 10.0784L11.8598 10.0781C11.8256 9.92666 11.8728 9.76159 11.997 9.65223L15.5174 6.55785L10.8884 6.13979C10.7245 6.1346 10.5706 6.03575 10.5021 5.87396Z" fill="url(#paint0_linear_8125_614)"/>
<path d="M10.5021 5.87396L8.66748 1.5497L6.83275 5.87396L6.83221 5.87383C6.77145 6.01732 6.63595 6.12313 6.47074 6.13761L1.81766 6.55785L5.31961 9.63599C5.44833 9.73702 5.51465 9.90741 5.47586 10.0784L4.435 14.6628L8.43704 12.2543C8.57078 12.17 8.74547 12.1625 8.89033 12.2498L12.9001 14.6628L11.8594 10.0784L11.8598 10.0781C11.8256 9.92666 11.8728 9.76159 11.997 9.65223L15.5174 6.55785L10.8884 6.13979C10.7245 6.1346 10.5706 6.03575 10.5021 5.87396Z" fill="url(#paint1_linear_8125_614)"/>
<defs>
<linearGradient id="paint0_linear_8125_614" x1="0.329235" y1="16.0188" x2="20.2082" y2="8.64242" gradientUnits="userSpaceOnUse">
<stop stop-color="#FF7A00"/>
<stop offset="0.5" stop-color="#F00679"/>
<stop offset="1" stop-color="#D300C5"/>
</linearGradient>
<linearGradient id="paint1_linear_8125_614" x1="0.329235" y1="16.0188" x2="20.2082" y2="8.64242" gradientUnits="userSpaceOnUse">
<stop stop-color="#FF7A00"/>
<stop offset="0.5" stop-color="#F00679"/>
<stop offset="1" stop-color="#D300C5"/>
</linearGradient>
</defs>
</svg>
